<?xml version="1.0" encoding="iso-8859-1"?>
<!-- Generator: Adobe Illustrator 22.0.1, SVG Export Plug-In . SVG Version: 6.00 Build 0)  -->
<svg version="1.1" id="Calque_2" xmlns="http://www.w3.org/2000/svg" xmlns:xlink="http://www.w3.org/1999/xlink" x="0px" y="0px"
	 viewBox="0 0 51.936 100.773" style="enable-background:new 0 0 51.936 100.773;" xml:space="preserve">
<g id="zensec-rouge">
	<path style="fill:#AF2141;" d="M26.327,30.138c-4.843-0.069-9.376,1.264-13.22,3.616l0-12.589c0-6.511,4.823-12.211,11.306-12.821
		c7.439-0.7,13.718,5.158,13.718,12.455v0.428c0,0.069,0.015,0.137,0.045,0.199l2.016,4.207l-1.601,0c-0.254,0-0.46,0.206-0.46,0.46
		v3.584c0,0.254,0.206,0.461,0.461,0.461h6.016c0.255,0,0.461-0.206,0.461-0.461v-8.4c0-10.533-8.175-19.515-18.7-19.913
		C15.304,0.946,6.169,9.826,6.169,20.8v19.275C2.783,44.601,0.91,50.322,1.307,56.48c0.782,12.126,10.535,22.04,22.647,23.005
		C38.361,80.632,50.471,69.341,50.68,55.22C50.879,41.7,39.847,30.331,26.327,30.138z"/>
	<g>
		<g>
			<path d="M9.551,97.253c-0.024,0.013-0.05,0.023-0.078,0.032c-0.028,0.01-0.057,0.019-0.087,0.026
				c0.03,0.007,0.059,0.015,0.087,0.024c0.028,0.01,0.054,0.021,0.078,0.034l0.695,0.351c0.025,0.013,0.043,0.027,0.053,0.045
				c0.01,0.017,0.016,0.036,0.016,0.059v0.265l-1.349-0.702v-0.153l1.349-0.701v0.267c0,0.021-0.005,0.039-0.016,0.057
				s-0.028,0.032-0.053,0.045L9.551,97.253z"/>
			<path d="M11.564,96.947c0.072-0.079,0.153-0.142,0.242-0.188c0.09-0.047,0.191-0.071,0.306-0.071c0.102,0,0.194,0.021,0.276,0.06
				c0.082,0.04,0.151,0.097,0.209,0.171c0.057,0.075,0.101,0.165,0.132,0.271c0.031,0.105,0.046,0.226,0.046,0.358
				c0,0.143-0.018,0.271-0.052,0.388c-0.035,0.116-0.085,0.216-0.151,0.3c-0.065,0.083-0.145,0.146-0.237,0.192
				c-0.093,0.045-0.197,0.067-0.311,0.067c-0.056,0-0.107-0.005-0.153-0.016s-0.088-0.027-0.127-0.048
				c-0.039-0.021-0.075-0.045-0.108-0.073c-0.033-0.029-0.064-0.062-0.094-0.099l-0.015,0.136c-0.006,0.026-0.016,0.046-0.031,0.057
				c-0.015,0.012-0.035,0.018-0.062,0.018h-0.241v-2.545h0.37V96.947z M11.564,98.029c0.051,0.066,0.108,0.113,0.169,0.141
				c0.061,0.026,0.128,0.04,0.2,0.04c0.146,0,0.259-0.053,0.34-0.158c0.082-0.105,0.123-0.269,0.123-0.49
				c0-0.202-0.036-0.349-0.106-0.442c-0.071-0.093-0.171-0.139-0.302-0.139c-0.091,0-0.169,0.021-0.237,0.061
				c-0.067,0.041-0.13,0.1-0.188,0.175V98.029z"/>
			<path d="M14.917,96.715l-0.966,2.253c-0.013,0.026-0.028,0.047-0.046,0.062c-0.018,0.015-0.045,0.022-0.082,0.022H13.55
				l0.323-0.702l-0.715-1.635h0.321c0.031,0,0.055,0.007,0.072,0.021c0.017,0.014,0.029,0.031,0.037,0.051l0.418,0.995
				c0.01,0.029,0.02,0.058,0.028,0.085c0.009,0.028,0.017,0.058,0.025,0.087c0.009-0.029,0.019-0.059,0.028-0.087
				c0.009-0.029,0.02-0.058,0.031-0.086l0.401-0.994c0.008-0.021,0.021-0.038,0.041-0.052c0.019-0.014,0.04-0.021,0.062-0.021
				H14.917z"/>
			<path d="M16.933,97.234v0.153l-1.348,0.702v-0.265c0-0.022,0.005-0.042,0.016-0.059c0.01-0.018,0.028-0.032,0.053-0.045
				l0.695-0.351c0.024-0.013,0.05-0.024,0.078-0.034c0.028-0.01,0.057-0.018,0.087-0.024c-0.03-0.008-0.059-0.017-0.087-0.026
				c-0.028-0.009-0.054-0.02-0.078-0.032l-0.695-0.353c-0.025-0.013-0.043-0.027-0.053-0.045c-0.011-0.018-0.016-0.036-0.016-0.057
				v-0.267L16.933,97.234z"/>
		</g>
		<g>
			<g>
				<g>
					<path d="M19.841,97.883c-0.192,0.255-0.355,0.454-0.355,0.518c0,0.121,0.241,0.121,0.383,0.121
						c0.802,0,1.518-0.078,2.107-0.667c0.05-0.057,0.085-0.092,0.107-0.092c0.014,0,0.021,0.014,0.021,0.028
						c0,0.049-0.035,0.135-0.05,0.184l-0.263,0.724h-3.498l2.419-3.107c0.092-0.121,0.17-0.22,0.17-0.277
						c0-0.128-0.22-0.128-0.454-0.128c-0.844,0-1.32,0.057-1.88,0.717c-0.014,0.014-0.035,0.043-0.057,0.043
						c-0.014,0-0.014-0.021-0.014-0.028c0.007-0.043,0.014-0.078,0.028-0.114l0.291-0.795h3.157L19.841,97.883z"/>
					<path d="M25.552,96.222c0-0.695-0.334-1.185-1.071-1.185c-0.646,0-0.993,0.575-1.071,1.185H25.552z M23.381,96.357
						c-0.014,0.163-0.021,0.312-0.021,0.461c0,1.32,0.681,1.809,1.369,1.809c0.816,0,1.419-0.561,1.66-1.391h0.149
						c-0.227,0.979-0.936,1.568-1.901,1.568c-1.206,0-2.1-0.816-2.1-1.951c0-1.135,0.894-1.951,2.1-1.951
						c0.773,0,1.71,0.468,1.809,1.454H23.381z"/>
					<path d="M27.95,96.003h0.014c0.163-0.603,0.511-1.1,1.447-1.1c0.78,0,1.511,0.405,1.511,1.533v1.369
						c-0.014,0.674,0.078,0.774,0.284,0.844c0.049,0.014,0.092,0.035,0.092,0.05c0,0.021-0.035,0.021-0.107,0.021
						c-0.064,0-0.248-0.021-0.638-0.021c-0.383,0-0.638,0.021-0.731,0.021c-0.043,0-0.078,0-0.078-0.021
						c0-0.014,0.014-0.035,0.064-0.043c0.256-0.028,0.383-0.22,0.383-0.851v-1.376c0-0.653-0.291-1.348-1.043-1.348
						c-0.844,0-1.121,0.866-1.121,1.859v0.865c0,0.447,0.021,0.781,0.34,0.837c0.05,0.007,0.078,0.021,0.078,0.043
						c0,0.028-0.021,0.036-0.064,0.036c-0.05,0-0.341-0.021-0.724-0.021c-0.383,0-0.709,0.021-0.759,0.021
						c-0.043,0-0.064-0.007-0.064-0.036c0-0.021,0.028-0.035,0.078-0.043c0.355-0.057,0.383-0.39,0.383-0.837v-1.759
						c0-0.426-0.05-0.667-0.248-0.752c-0.078-0.035-0.128-0.057-0.128-0.071c0-0.021,0.05-0.021,0.135-0.036
						c0.34-0.064,0.631-0.113,0.894-0.206V96.003z"/>
					<path d="M31.88,94.101c0-0.227,0.191-0.426,0.419-0.426c0.241,0,0.426,0.199,0.426,0.426c0,0.227-0.184,0.419-0.426,0.419
						C32.072,94.52,31.88,94.328,31.88,94.101 M31.994,95.74c0-0.355-0.135-0.397-0.248-0.461c-0.042-0.021-0.121-0.021-0.121-0.043
						c0-0.014,0.078-0.021,0.128-0.028c0.334-0.064,0.632-0.135,0.972-0.227v2.824c0,0.447,0.042,0.766,0.369,0.83
						c0.043,0.007,0.071,0.021,0.071,0.064c0,0.021-0.035,0.021-0.099,0.021c-0.071,0-0.326-0.021-0.71-0.021
						c-0.383,0-0.638,0.021-0.709,0.021c-0.064,0-0.099,0-0.099-0.021c0-0.043,0.028-0.057,0.071-0.064
						c0.326-0.064,0.376-0.383,0.376-0.83V95.74z"/>
					<path d="M35.732,97.578c-0.149-0.248-0.461-0.873-0.844-0.873c-0.249,0-0.249,0.284-0.249,0.589v0.511
						c0,0.447,0.036,0.717,0.383,0.837c0.036,0.007,0.064,0.021,0.064,0.043c0,0.021-0.036,0.036-0.078,0.036
						c-0.035,0-0.348-0.021-0.738-0.021c-0.383,0-0.667,0.021-0.709,0.021c-0.036,0-0.071-0.014-0.071-0.036
						c0-0.021,0.021-0.028,0.05-0.043c0.34-0.106,0.369-0.525,0.369-1.121v-2.817c0-0.419-0.029-0.745-0.262-0.78
						c-0.078-0.014-0.121-0.036-0.121-0.064c0-0.021,0.064-0.035,0.135-0.057c0.34-0.085,0.638-0.156,0.979-0.248v3.065l1.192-0.993
						c0.163-0.135,0.263-0.248,0.263-0.369c0-0.099-0.085-0.156-0.121-0.191c-0.028-0.021-0.071-0.021-0.071-0.057
						c0-0.028,0.043-0.028,0.099-0.028c0.064,0,0.312,0.028,0.681,0.028c0.347,0,0.433-0.028,0.66-0.028
						c0.064,0,0.099,0,0.099,0.043c0,0.035-0.121,0.043-0.234,0.071c-0.404,0.099-0.816,0.348-1.149,0.603l-1.05,0.795v0.014
						c0.965,0.021,1.178,0.39,1.667,1.171c0.241,0.383,0.539,0.78,0.922,0.958c0.035,0.014,0.071,0.028,0.071,0.049
						c0,0.021-0.035,0.036-0.078,0.036c-0.035,0-0.355-0.021-0.709-0.021c-0.163,0-0.326,0.021-0.468,0.021L35.732,97.578z"/>
					<path d="M40.585,96.57h-0.419c-0.766,0-1.553,0.227-1.553,1.163c0,0.518,0.376,0.894,0.88,0.894
						c0.837,0,1.093-0.88,1.093-1.561V96.57z M41.316,98.081c0,0.234,0.035,0.447,0.256,0.546c0.042,0.021,0.071,0.021,0.071,0.043
						c0,0.021-0.043,0.028-0.092,0.028h-0.766c-0.099-0.227-0.156-0.475-0.17-0.724h-0.014c-0.276,0.575-0.688,0.83-1.312,0.83
						c-0.738,0-1.497-0.341-1.497-1.185c0-1.078,1.646-1.185,2.391-1.185h0.404v-0.234c0-0.681-0.319-1.163-1.036-1.163
						c-0.653,0-1.036,0.191-1.291,0.816c-0.028,0.064-0.043,0.121-0.057,0.121c-0.014,0-0.021-0.036-0.035-0.078l-0.185-0.638
						c0.582-0.305,1.043-0.355,1.674-0.355c0.809,0,1.66,0.291,1.66,1.185V98.081z"/>
				</g>
			</g>
		</g>
	</g>
	<g>
		<path style="fill:#AF2141;" d="M12.778,85.401c0,0.082-0.014,0.162-0.042,0.239c-0.028,0.077-0.066,0.144-0.113,0.2l-3.542,4.71
			h3.574v0.896H7.732v-0.478c0-0.056,0.013-0.121,0.039-0.196s0.064-0.147,0.116-0.217l3.561-4.742H7.933v-0.903h4.845V85.401z"/>
		<path style="fill:#AF2141;" d="M19.282,90.531c-0.142,0.172-0.312,0.321-0.51,0.448s-0.41,0.231-0.636,0.312
			c-0.226,0.082-0.459,0.144-0.7,0.185c-0.241,0.041-0.48,0.061-0.716,0.061c-0.452,0-0.868-0.076-1.249-0.229
			s-0.709-0.376-0.987-0.671c-0.277-0.295-0.493-0.659-0.648-1.094c-0.155-0.435-0.232-0.934-0.232-1.497
			c0-0.456,0.07-0.882,0.209-1.277s0.341-0.738,0.604-1.029c0.262-0.29,0.583-0.518,0.961-0.684
			c0.379-0.166,0.805-0.248,1.278-0.248c0.391,0,0.754,0.065,1.087,0.196c0.333,0.131,0.622,0.32,0.865,0.567
			c0.243,0.248,0.433,0.553,0.571,0.917c0.138,0.363,0.207,0.777,0.207,1.241c0,0.181-0.019,0.302-0.058,0.361
			c-0.039,0.061-0.112,0.091-0.219,0.091h-4.368c0.013,0.413,0.07,0.772,0.171,1.077c0.101,0.306,0.242,0.561,0.422,0.765
			s0.396,0.357,0.645,0.458c0.25,0.102,0.529,0.152,0.839,0.152c0.288,0,0.537-0.034,0.745-0.101s0.388-0.139,0.539-0.216
			c0.15-0.077,0.276-0.149,0.377-0.217c0.101-0.066,0.188-0.1,0.261-0.1c0.094,0,0.167,0.037,0.219,0.109L19.282,90.531z
			 M18.353,87.466c0-0.267-0.038-0.511-0.113-0.732s-0.185-0.413-0.329-0.574s-0.319-0.286-0.526-0.374
			c-0.207-0.089-0.441-0.133-0.703-0.133c-0.551,0-0.986,0.16-1.307,0.48s-0.52,0.765-0.597,1.333H18.353z"/>
		<path style="fill:#AF2141;" d="M21.876,85.859c0.142-0.158,0.292-0.303,0.452-0.432s0.328-0.24,0.506-0.332
			c0.179-0.093,0.368-0.164,0.568-0.213c0.2-0.05,0.416-0.074,0.648-0.074c0.357,0,0.672,0.059,0.945,0.177
			c0.273,0.118,0.501,0.286,0.684,0.504c0.183,0.217,0.322,0.479,0.417,0.783c0.094,0.306,0.142,0.644,0.142,1.014v4.161h-1.155
			v-4.161c0-0.495-0.113-0.879-0.339-1.152c-0.226-0.272-0.569-0.409-1.029-0.409c-0.34,0-0.657,0.081-0.952,0.245
			c-0.295,0.163-0.567,0.385-0.816,0.664v4.813h-1.155v-6.536h0.69c0.164,0,0.265,0.08,0.303,0.239L21.876,85.859z"/>
		<path style="fill:#AF2141;" d="M31.798,85.989c-0.052,0.095-0.131,0.142-0.238,0.142c-0.064,0-0.138-0.023-0.22-0.071
			c-0.081-0.047-0.182-0.1-0.3-0.158c-0.118-0.058-0.259-0.111-0.423-0.161c-0.163-0.049-0.356-0.074-0.58-0.074
			c-0.194,0-0.368,0.025-0.522,0.074c-0.155,0.05-0.287,0.117-0.397,0.203c-0.109,0.087-0.193,0.187-0.251,0.301
			c-0.059,0.113-0.088,0.237-0.088,0.37c0,0.168,0.049,0.308,0.146,0.42s0.225,0.209,0.384,0.29c0.159,0.082,0.34,0.154,0.542,0.217
			c0.202,0.062,0.41,0.129,0.623,0.199c0.213,0.071,0.42,0.149,0.622,0.236c0.202,0.086,0.383,0.193,0.542,0.322
			s0.287,0.287,0.384,0.474c0.097,0.188,0.146,0.412,0.146,0.675c0,0.301-0.054,0.579-0.161,0.835
			c-0.107,0.257-0.267,0.478-0.478,0.665s-0.469,0.334-0.774,0.442c-0.306,0.107-0.658,0.161-1.058,0.161
			c-0.456,0-0.869-0.074-1.239-0.223s-0.684-0.339-0.942-0.571l0.271-0.438c0.034-0.056,0.075-0.099,0.122-0.129
			c0.048-0.03,0.107-0.046,0.181-0.046c0.078,0,0.159,0.03,0.245,0.091c0.087,0.061,0.19,0.127,0.313,0.2
			c0.122,0.073,0.271,0.14,0.448,0.2c0.177,0.06,0.396,0.09,0.658,0.09c0.224,0,0.419-0.029,0.587-0.087
			c0.168-0.059,0.308-0.137,0.42-0.235c0.111-0.1,0.194-0.213,0.248-0.342c0.054-0.13,0.081-0.268,0.081-0.413
			c0-0.181-0.049-0.33-0.146-0.448c-0.097-0.119-0.225-0.22-0.384-0.304s-0.341-0.157-0.545-0.22
			c-0.205-0.062-0.413-0.128-0.626-0.196c-0.213-0.069-0.422-0.147-0.626-0.235c-0.204-0.089-0.387-0.199-0.545-0.333
			c-0.159-0.133-0.287-0.297-0.385-0.493c-0.097-0.195-0.145-0.434-0.145-0.713c0-0.249,0.052-0.489,0.154-0.72
			c0.104-0.229,0.254-0.432,0.452-0.606c0.197-0.174,0.44-0.312,0.729-0.416s0.617-0.154,0.987-0.154
			c0.431,0,0.816,0.067,1.158,0.203c0.342,0.135,0.638,0.321,0.888,0.558L31.798,85.989z"/>
		<path style="fill:#AF2141;" d="M38.883,90.531c-0.143,0.172-0.312,0.321-0.51,0.448c-0.198,0.127-0.41,0.231-0.636,0.312
			c-0.226,0.082-0.459,0.144-0.7,0.185s-0.479,0.061-0.716,0.061c-0.452,0-0.868-0.076-1.249-0.229s-0.709-0.376-0.987-0.671
			c-0.277-0.295-0.493-0.659-0.648-1.094c-0.154-0.435-0.231-0.934-0.231-1.497c0-0.456,0.069-0.882,0.209-1.277
			s0.341-0.738,0.604-1.029c0.263-0.29,0.583-0.518,0.961-0.684c0.379-0.166,0.805-0.248,1.278-0.248
			c0.391,0,0.754,0.065,1.087,0.196s0.621,0.32,0.864,0.567c0.243,0.248,0.434,0.553,0.571,0.917
			c0.138,0.363,0.206,0.777,0.206,1.241c0,0.181-0.019,0.302-0.058,0.361c-0.039,0.061-0.112,0.091-0.22,0.091H34.34
			c0.014,0.413,0.07,0.772,0.172,1.077c0.101,0.306,0.241,0.561,0.422,0.765s0.396,0.357,0.646,0.458
			c0.249,0.102,0.529,0.152,0.839,0.152c0.288,0,0.536-0.034,0.745-0.101c0.208-0.066,0.388-0.139,0.539-0.216
			c0.15-0.077,0.276-0.149,0.377-0.217c0.102-0.066,0.188-0.1,0.262-0.1c0.094,0,0.167,0.037,0.219,0.109L38.883,90.531z
			 M37.953,87.466c0-0.267-0.037-0.511-0.112-0.732s-0.186-0.413-0.329-0.574c-0.145-0.161-0.319-0.286-0.526-0.374
			c-0.206-0.089-0.44-0.133-0.703-0.133c-0.551,0-0.986,0.16-1.307,0.48s-0.52,0.765-0.597,1.333H37.953z"/>
		<path style="fill:#AF2141;" d="M44.941,86.073c-0.035,0.047-0.069,0.083-0.104,0.109c-0.034,0.025-0.082,0.038-0.142,0.038
			c-0.064,0-0.136-0.026-0.213-0.08c-0.078-0.054-0.174-0.113-0.287-0.178c-0.114-0.064-0.254-0.123-0.42-0.177
			c-0.166-0.055-0.369-0.081-0.609-0.081c-0.323,0-0.606,0.057-0.852,0.171s-0.451,0.278-0.616,0.493
			c-0.166,0.216-0.291,0.476-0.374,0.781c-0.084,0.306-0.126,0.647-0.126,1.025c0,0.396,0.045,0.748,0.135,1.056
			c0.091,0.308,0.219,0.565,0.385,0.773c0.165,0.209,0.365,0.368,0.6,0.478c0.234,0.11,0.498,0.165,0.79,0.165
			c0.28,0,0.51-0.033,0.69-0.101c0.181-0.066,0.33-0.141,0.448-0.223c0.118-0.081,0.218-0.155,0.297-0.223
			c0.08-0.066,0.158-0.1,0.235-0.1c0.095,0,0.168,0.037,0.22,0.109l0.322,0.42c-0.142,0.176-0.303,0.327-0.483,0.451
			c-0.181,0.125-0.375,0.229-0.584,0.313s-0.427,0.145-0.655,0.184c-0.228,0.039-0.46,0.058-0.696,0.058
			c-0.409,0-0.788-0.075-1.139-0.226s-0.655-0.368-0.913-0.654s-0.46-0.638-0.606-1.056c-0.146-0.417-0.22-0.892-0.22-1.426
			c0-0.485,0.068-0.936,0.203-1.348c0.136-0.413,0.334-0.77,0.594-1.068c0.261-0.299,0.581-0.532,0.962-0.7
			c0.38-0.168,0.818-0.251,1.312-0.251c0.46,0,0.865,0.074,1.216,0.223c0.351,0.147,0.662,0.357,0.933,0.629L44.941,86.073z"/>
	</g>
	<path style="fill:#FFFFFF;" d="M36.177,66.813c0.035,1.031,0.36,2.093-0.126,3.015c-0.622,0.85-1.763,0.727-2.295,0.345
		c-0.024,0.001-0.314-0.225-0.605-0.461c0.707,0.519,1.138,0.683,1.475,0.683c0.514,0,0.952-0.152,1.236-0.486
		c0.501-0.337,0.375-1.991,0.182-3.581c-0.093-0.84-0.207-1.702-0.314-2.462c-0.011-0.09-0.022-0.171-0.036-0.255
		c0.009,0.001,0.014,0.001,0.022,0.002c0.016,0.002,0.033,0.003,0.05,0.004C35.894,64.52,36.108,65.919,36.177,66.813 M32.93,68.105
		c-0.25-0.133-0.657-0.461-0.776-0.488c-0.402-0.334-0.496-0.503-0.652-0.688c-0.312-0.263-0.334-0.231-0.586-0.37
		c-0.652-0.483,0.213-0.012-0.538-0.552c-0.062-0.047-0.127-0.094-0.196-0.14c0.016,0.004,0.035,0.008,0.064,0.023l-0.188-0.136
		c-0.107-0.058-0.188-0.095-0.185-0.074c-0.108-0.058-0.189-0.091-0.197-0.077c-0.308-0.27-0.757-0.534-0.966-0.741
		c-0.587-0.265-1.146-0.888-1.82-1.232c-0.66-0.501-1.272-0.814-1.942-1.193c-0.206,0.001-0.182,0.146,0.08,0.43
		c-0.644-0.412-1.232-0.783-1.768-1.117c0.317,0.033,0.696,0.065,0.154-0.329c0.019,0.021,0.048,0.044,0.098,0.083
		c-0.04,0.017-0.116-0.01-0.335-0.119c-0.178-0.127-0.615-0.369-0.524-0.36l0.049,0.027c0.004-0.029-0.193-0.215-0.437-0.347
		c-0.063-0.012,0.113,0.141-0.136,0.037c-0.26-0.141-0.551-0.326-0.766-0.478c0.093,0.011,0.19,0.022,0.274,0.034
		c0.525-0.041,1.556,0.249,1.965,0.179c0.839,0.145,0.94,0.08,1.396,0.09c0.642,0.166-0.864-0.043-0.527,0.074
		c0.947,0.163,1.991,0.288,2.958,0.467c0.253-0.001-0.161-0.122,0.348-0.045c-0.152-0.002-0.032,0.058,0.119,0.095
		c-0.063-0.018,0.078-0.006,0.097-0.014l-0.139-0.035c-0.084-0.125,0.678,0.132,1.024,0.142c0.146,0.065-0.182-0.034-0.213-0.003
		c-0.001,0.049,0.137,0.135,0.595,0.239c0.922,0.116,1.537,0.35,2.543,0.545c-0.036-0.05,0.241,0.03,0.404,0.06
		c-0.21-0.01,0.179,0.119,0.372,0.17c0.171,0.022,0.766,0.194,1.223,0.325l0.055,0.016c0.012,0.002,0.022,0.005,0.032,0.008
		c0.001,0.013,0.001,0.026,0.001,0.044c0.005,0.109-0.009,0.089-0.016,0.105l0.012,0.222c0.02,0.005,0.061-0.042,0.066,0.251
		l-0.042,0.174c-0.003,0.135,0.001,0.254,0.008,0.347c-0.034,0.512-0.064,1.02-0.064,1.199c0.028-0.088,0.071,0.364,0.104,0.46
		c-0.008,0.22-0.005,0.422,0.018,0.519c-0.043,0.403-0.095,0.518-0.154,0.745c-0.05,0.613-0.198,1.395-0.375,1.723
		C33.278,68.566,32.976,68.149,32.93,68.105 M33.696,58.425c0.095,0.511,0.154,1.211,0.194,1.989l0.022,0.48l-0.043-0.008
		c-0.002-0.002-0.002-0.007-0.009-0.007C33.837,60.056,33.811,59.231,33.696,58.425 M33.915,60.974
		c-0.016-0.002-0.032-0.004-0.048-0.007c0.002-0.017,0.007-0.033,0.007-0.046l0.039,0.006L33.915,60.974z M35.743,63.457
		c0.007,0.043,0.012,0.092,0.02,0.141c-0.024-0.004-0.048-0.005-0.071-0.008c-0.008-0.05-0.013-0.1-0.02-0.149
		C35.695,63.446,35.72,63.451,35.743,63.457 M16.862,69.5c-0.01-0.002-0.02-0.002-0.031-0.005c-0.005,0-0.011-0.003-0.019-0.003
		C16.829,69.495,16.846,69.498,16.862,69.5 M17.787,69.528c-0.043,0.03-0.111,0.044-0.21,0.027h-0.001
		C17.659,69.555,17.732,69.547,17.787,69.528 M17.841,69.312c-0.03-0.057-0.074-0.134-0.128-0.227
		C17.774,69.15,17.82,69.232,17.841,69.312 M34.97,41.319c-0.003,0.027-0.003,0.05-0.003,0.065
		c-0.001-0.011-0.003-0.027-0.005-0.049C34.967,41.328,34.967,41.324,34.97,41.319 M36.839,63.551
		c0.018-0.051-0.236-0.051-0.359-0.073c-0.213-0.025-0.431-0.049-0.658-0.082c0-0.006-0.003-0.01-0.003-0.015
		c0.452,0.091,0.899-0.012,1.281,0.241c-0.003-0.101-0.123,0.204,1.552-0.484c0.167-0.085,0.333-0.145,0.496-0.33
		c0.213-0.326-0.145-0.545-0.257-0.627c-1.699-0.745-3.009-0.83-3.304-0.905c-0.305-0.006,0.413,0.048,2.612,0.712
		c0.129,0.034,0.263,0.052,0.392,0.103c0.171,0.072,0.343,0.168,0.497,0.318c0.23,0.263-0.086,0.515-0.213,0.578
		c-0.333,0.196-0.681,0.31-1.035,0.414c-0.299,0.139-0.841,0.144-1.073-0.049c-0.306-0.046-0.621-0.071-0.936-0.12
		c-0.001-0.009-0.005-0.019-0.007-0.03c0.162,0.023,0.387,0.048,0.63,0.061c0.196-0.032,0.368,0.049,0.533,0.111
		c0.043,0.037,0.096,0.074,0.186,0.074c0.445,0,1.902-0.504,1.902-0.824c0-0.406-1.636-0.861-3.869-1.295
		c-0.206-1.059-0.414-1.853-0.717-2.835c-0.104-0.302-0.205-0.336-0.376-0.336c-0.204,0-0.306,0.068-0.306,0.152
		c0,0.072,0.143,0.573,0.222,2.601l-0.007-0.001c-0.009-0.142-0.057-0.325-0.04-0.445l-0.091-0.939
		c-0.033-0.309-0.076-0.612-0.126-0.903c0.014-0.14-0.163-0.279,0.075-0.512c0.171-0.04,0.329-0.11,0.518-0.011
		c0.451,0.554,0.417,1.002,0.595,1.398c0.138,0.469,0.26,0.959,0.365,1.438c-0.208-0.908-0.319-1.739-0.794-2.819
		c-0.264-0.301-0.948-0.243-0.916,0.339c0.042,0.252,0.068,0.508,0.094,0.772c0.047,0.525,0.078,1.074,0.101,1.646l0.009,0.036
		h0.009c0.003,0.013,0.003,0.031,0.005,0.047c-0.109-0.015-0.234-0.032-0.274-0.044l-1.245-0.203
		c-1.654-0.259-3.224-0.467-3.923-0.526c-2.443-0.343-3.154-0.477-4.56-0.681c-0.964-0.115-1.976-0.205-2.994-0.311l-1.493-0.153
		c1.841-0.744,3.598-1.462,5.022-2.071c3.581-1.478,4.269-1.694,5.278-2.055c1.61-0.699,4.582-1.821,5.185-2.242
		c0.353-0.224,0.717-0.319,0.972-0.817c0.11-0.682-0.46-0.863-0.68-0.989c-0.579-0.247-1.058-0.33-1.482-0.422
		c-0.848-0.163-1.476-0.251-2.189-0.336c-1.13-0.089-2.119-0.157-2.135-0.096c-0.429-0.305-0.789-0.55-1.503-1.058
		c-0.196-0.147-0.362-0.272-0.518-0.389c0.048-0.023,0.091-0.045,0.121-0.06c0.202-0.097,0.117-0.032,0.052,0.023
		c-0.133,0.11-0.188,0.176,2.276-1.192c0.409-0.225,0.847-0.469,1.278-0.712c-0.081,0.053-0.176,0.113-0.334,0.208l1.236-0.687
		c0.638-0.369,1.121-0.657,1.037-0.629c0.627-0.366,1.047-0.622,1.035-0.634c0.547-0.291,1.127-0.603,1.719-0.933
		c0.295-0.167,0.592-0.336,0.892-0.524c0.241-0.3,0.722-0.119,0.858-1.154c-0.591-0.99-0.784-1.211-1.85-1.564
		c-0.137-0.016-0.459,0.082-0.587,0.376c-0.028,0.067-0.042,0.135-0.05,0.192c-0.028,0.026-0.099,0.115-0.142,0.132
		c-0.175,0.144-0.375,0.28-0.553,0.398c-1.518,1.11-3.45,2.209-5.451,3.277c-1.015,0.528-2.054,1.066-3.085,1.612l-0.535,0.284
		l-0.1-0.076l-0.36-0.261c-0.483-0.337-0.969-0.656-1.457-0.956c-2.149-1.376-4.076-2.548-6.245-3.329
		c-1.225-0.411-2.355-0.107-3.483,0.127c-0.151,0.052-0.278,0.074-0.452,0.155c-0.087,0.076-0.136-0.032-0.357,0.311
		c-0.082,0.109-0.037,0.315,0.15,0.463c0.175,0.104,0.117,0.051,0.188,0.085c0.318,0.096,0.572,0.148,0.856,0.22
		c0.552,0.141,1.109,0.29,1.671,0.467c1.024,0.24,0.568-0.111-1.65-0.807c1.772,0.459,6.003,1.645,11.596,5.345
		c-1.553-0.843-3.515-1.829-0.077,0.39c-0.127-0.091-0.315-0.221-0.625-0.433c0.146,0.067,0.564,0.282,1.78,1.111
		c0.11,0.082,0.243,0.179,0.381,0.277c-0.123-0.004-0.247-0.007-0.361-0.01c-0.862-0.019-1.495-0.035-1.245-0.05l0.337,0.005
		c-0.073-0.032-1.67-0.11-3.354-0.112c-0.371,0.02,1.022,0.07-0.591,0.097c-2.053,0.04-4.385-0.113-6.152,0.044
		c-0.564,0.163-1.048,0.531-1.364,1.009c-0.135,0.189-0.377,0.512-0.168,0.897c0.29,0.359,0.648,0.219,0.814,0.175
		c0.333-0.119,0.595-0.186,0.864-0.243c0.529-0.109,1.002-0.174,1.698-0.253c-0.341,0.051-0.678,0.11-1.014,0.177
		c0.736-0.076,0.113,0.005,2.64-0.239c1.695-0.157,2.032-0.179,4.282-0.278c1.348-0.013,3.207-0.04,5.132-0.047
		c0.956,0.004,1.925,0.012,2.841,0.106c0.457,0.047,0.902,0.107,1.299,0.201c0.079,0.018,0.156,0.043,0.224,0.067
		c-2.802,1.204-8.932,3.306-11.088,4.261c-2.441,0.902-3.783,1.418-4.836,1.841c-0.527,0.209-0.982,0.395-1.465,0.592
		c-0.016,0.002-0.033,0.011-0.05,0.014c1.179-0.608,2.083-0.787,1.276-0.586c-0.722,0.354-1.308,0.293-2.163,0.998
		c-0.538,0.771-0.583,1.567-0.674,2.342c-0.066,0.783-0.062,1.555-0.029,2.338l0.075,1.163l0.058,0.59l0.047,0.304l0.037,0.172
		c0.034,0.007,0.018,0.055,0.034,0.116c0.058,1.052,0.223,2.141,0.932,3.05c0.595,0.607,0.414,0.344,0.36,0.288
		c-0.011-0.177-0.051,0.325,1.623,0.659c-0.55-0.071-0.526-0.067-0.211,0.018c0.159,0.04,0.394,0.066,0.654,0.076
		c0.099-0.027,0.199,0.048,0.39-0.041c-0.029,0.005-0.018,0.007,0.041-0.025c-0.014,0.008-0.029,0.019-0.041,0.025
		c0.007-0.001,0.007-0.002,0.016-0.002c0.02-0.022,0.106-0.043,0.18-0.128c-0.007,0.005-0.012,0.008-0.018,0.012
		c0.007-0.006,0.012-0.009,0.02-0.015c0,0.001-0.001,0.001-0.002,0.002c0.013-0.009,0.022-0.016,0.033-0.026
		c0.002-0.009,0.002-0.015,0.005-0.024c-0.01,0.018-0.024,0.032-0.036,0.047c0.007-0.032,0.007-0.051,0.01-0.08
		c-0.043,0.085-0.106,0.156-0.184,0.167c-0.133,0.047-0.228,0.05-0.319,0.05c-0.083-0.012-0.077-0.023,0.007-0.031
		c-0.018-0.068,0.492,0.159,0.476-0.496c-0.218-0.431-0.53-0.89-0.852-1.517c-0.661-1.212-1.211-2.835-1.386-3.839
		c-0.14-0.922,0.193,1.075,0.321,1.205c0.104-0.052-0.408-0.928-0.28-3.679c-0.108-1.492,1.583-0.475,2.674-0.186
		c1.168,0.444,2.27,0.955,3.365,1.514c2.183,1.122,4.319,2.521,6.909,4.271c-0.205-0.193,1.228,0.819,2.047,1.403
		c-1.054-0.7,0.958,0.748,1.894,1.532c0.638,0.438,1.028,0.713,1.737,0.798c0.432,0.019,1.535-0.059,1.93-1.16
		c-0.189,0.445-0.584,0.832-1.047,0.941c-0.254,0.059-0.636,0.192-1.186,0.049c-0.501-0.155-0.959-0.468-1.407-0.807
		c-0.86-0.686-1.828-1.35-2.476-1.803c-0.717-0.707-6.542-4.321-5.892-3.984l0.824,0.527c3.024,1.953,4.603,2.914,7.337,4.906
		c0.98,0.915,2.077,1.411,2.949,0.972c0.953-0.388,1.001-1.492,0.925-2.322c-0.177-2.214-0.328-2.795-0.505-3.93
		c-0.03-0.195-0.058-0.372-0.086-0.548l-0.003-0.021c-0.007-0.044-0.013-0.092-0.02-0.136c0.163,0.026,0.32,0.046,0.48,0.066
		c0.657,0.064-0.291-0.051,0.36,0.015c0.154,0.011,0.127,0.032,0.177,0.066c0.229,0.132,0.42,0.123,0.529,0.097
		c0.257-0.039,0.482-0.102,0.704-0.171c0.423-0.17,0.77-0.226,1.135-0.605c-0.205,0.157-0.873,0.561-1.81,0.719
		C37.312,63.72,36.942,63.642,36.839,63.551"/>
</g>
</svg>
